{"title":"Beyond Remedy-AC3-5,1-DVDRip[Eng]2009","uid":5293595,"size":1306491000,"categoryP":"video","categoryS":"movies","magnet":"?xt=urn:btih:cb4dee8161654d9bfae3821918b9ce9aa8f562b8&amp;dn=Beyond+Remedy-AC3-5%2C1-DVDRip%5BEng%5D2009&amp;tr=udp%3A%2F%2Ftracker.openbittorrent.com%3A80&amp;tr=udp%3A%2F%2Fopen.demonii.com%3A1337&amp;tr=udp%3A%2F%2Ftracker.coppersurfer.tk%3A6969&amp;tr=udp%3A%2F%2Fexodus.desync.com%3A6969","seeders":1,"leechers":1,"uploader":"FatFreddy31","files":-1,"time":1263984362,"description":" &lt;a href=&quot;http://www.imdb.com/title/tt1087445/&quot; rel=&quot;nofollow&quot; target=&quot;_NEW&quot;&gt;http://www.imdb.com/title/tt1087445/&lt;/a&gt;\n &lt;a href=&quot;\nhttp://www.beyond-remedy.com/&quot; rel=&quot;nofollow&quot; target=&quot;_NEW&quot;&gt;\nhttp://www.beyond-remedy.com/&lt;/a&gt;\n\nUser Rating:3.7/10 - 30 votes\n\nHorror\n\nDirector:Gerhard HroÃƒÅ¸\n\nCast:Jaqueline Burgschat/Annalena Duken/David Gant, and others.\n\nPlot:\nAn international group of medical students takes part in a seminar on fear - with deadly results. \n\nInfo:\n\nCover included.\n\nGeneral\nComplete name                    : Beyond Remedy-AC3-5,1-DVDRip[Eng]2009.avi\nFormat                           : AVI\nFormat/Info                      : Audio Video Interleave\nFile size                        : 1.22 GiB\nDuration                         : 1h 30mn\nOverall bit rate                 : 1 913 Kbps\nWriting application              : VirtualDubMod 1.5.4.1 (build 2178/release)\nWriting library                  : VirtualDubMod build 2178/release\n\nVideo\nID                               : 0\nFormat                           : MPEG-4 Visual\nFormat profile                   : Simple@L3\nFormat settings, BVOP            : No\nFormat settings, QPel            : No\nFormat settings, GMC             : No warppoints\nFormat settings, Matrix          : Default (H.263)\nCodec ID                         : XVID\nCodec ID/Hint                    : XviD\nDuration                         : 1h 30mn\nBit rate                         : 1 456 Kbps\nWidth                            : 640 pixels\nHeight                           : 352 pixels\nDisplay aspect ratio             : 16:9\nFrame rate                       : 25.000 fps\nResolution                       : 24 bits\nColorimetry                      : 4:2:0\nScan type                        : Progressive\nBits/(Pixel*Frame)               : 0.258\nStream size                      : 947 MiB (76%)\nWriting library                  : XviD 1.1.2 (UTC 2006-11-01)\n\nAudio\nID                               : 1\nFormat                           : AC-3\nFormat/Info                      : Audio Coding 3\nCodec ID                         : 2000\nDuration                         : 1h 30mn\nBit rate mode                    : Constant\nBit rate                         : 448 Kbps\nChannel(s)                       : 6 channels\nChannel positions                : Front: L C R, Surround: L R, LFE\nSampling rate                    : 48.0 KHz\nStream size                      : 291 MiB (23%)\nAlignment                        : Split accross interleaves\nInterleave, duration             : 40 ms (1.00 video frame)\nInterleave, preload duration     : 500 ms\n\nEnjoy...","torrent":{"xt":"urn:btih:cb4dee8161654d9bfae3821918b9ce9aa8f562b8","amp;dn":"Beyond+Remedy-AC3-5%2C1-DVDRip%5BEng%5D2009","amp;tr":["udp%3A%2F%2Ftracker.openbittorrent.com%3A80","udp%3A%2F%2Fopen.demonii.com%3A1337","udp%3A%2F%2Ftracker.coppersurfer.tk%3A6969","udp%3A%2F%2Fexodus.desync.com%3A6969"],"infoHash":"cb4dee8161654d9bfae3821918b9ce9aa8f562b8","infoHashBuffer":{"type":"Buffer","data":[203,77,238,129,97,101,77,155,250,227,130,25,24,185,206,154,168,245,98,184]},"announce":[],"urlList":[]}}